<svg width="25" height="17" viewBox="0 0 25 17" fill="none" xmlns="http://www.w3.org/2000/svg">
<path fill-rule="evenodd" clip-rule="evenodd" d="M17.3374 11.3333L20.7694 0H24.9644L24.2214 1.88889H22.2924L18.8184 13.2222H5.57936L4.74036 11.3333H17.3374ZM15.8004 9.44444L17.7774 2.83333H0.964355L3.90236 9.44444H15.8004ZM9.46436 17C10.2924 17 10.9644 16.3663 10.9644 15.5833C10.9644 14.8013 10.2924 14.1667 9.46436 14.1667C8.63636 14.1667 7.96436 14.8013 7.96436 15.5833C7.96436 16.3663 8.63636 17 9.46436 17ZM12.9644 15.5833C12.9644 14.8004 13.6364 14.1667 14.4644 14.1667C15.2924 14.1667 15.9644 14.8013 15.9644 15.5833C15.9644 16.3663 15.2924 17 14.4644 17C13.6364 17 12.9644 16.3663 12.9644 15.5833Z" fill="white"/>
</svg>
